<svg xmlns="http://www.w3.org/2000/svg" viewBox="0 0 100 100" width="100%" height="100%">
  <!-- Building Left Face -->
  <polygon points="35,63 35,20 50,10 50,63" fill="#0f2b60" />

  <!-- Building Right Face -->
  <polygon points="50,10 65,20 65,63 50,63" fill="#0a1b3f" />

  <!-- Windows -->
  <rect x="40" y="25" width="5" height="7" fill="#ffffff" />
  <rect x="40" y="36" width="5" height="7" fill="#ffffff" />
  <rect x="40" y="47" width="5" height="7" fill="#ffffff" />

  <!-- Base Blue Swoosh -->
  <path d="M 15,69 Q 50,61 85,69 L 85,75 Q 50,67 15,75 Z" fill="#0f2b60" />

  <!-- Red Swooshes -->
  <path d="M 15,79 Q 50,71 85,79 L 85,85 Q 50,77 15,85 Z" fill="#d31216" />
  <path d="M 15,89 Q 50,81 85,89 L 85,95 Q 50,87 15,95 Z" fill="#d31216" />
</svg>
